<?xml version="1.0" standalone="no"?><!DOCTYPE svg PUBLIC "-//W3C//DTD SVG 1.1//EN" "http://www.w3.org/Graphics/SVG/1.1/DTD/svg11.dtd"><svg class="icon" height="512" viewBox="0 0 1024 1024" version="1.1" xmlns="http://www.w3.org/2000/svg"><path d="M512 978.486613C254.3616 978.486613 45.513387 769.6384 45.513387 512 45.513387 254.3616 254.3616 45.513387 512 45.513387c257.6384 0 466.49344 208.85504 466.49344 466.486613 0 257.6384-208.85504 466.486613-466.49344 466.486613z m257.90464-628.585813a42.420907 42.420907 0 0 0-59.8016 4.553387l-234.755413 273.544533-144.820907-124.279467a42.400427 42.400427 0 1 0-55.248213 64.354987l177.001813 151.906987a42.427733 42.427733 0 0 0 59.8016-4.553387c4.990293-5.8368 22.4256-26.13248 27.62752-32.180907l234.78272-273.537706a42.420907 42.420907 0 0 0-4.58752-59.808427z" fill="#8AC034" /></svg>